# xmcd
#
# Track frame offsets: 
#        150
#        68699
#        112773
#        148783
#        188022
#        238954
#        271046
#
# Disc length: 4191 seconds
#
# Revision: 8
# Processed by: cddbd v1.5.2PL0 Copyright (c) Steve Scherf et al.
# Submitted via: ExactAudioCopy v1.0b3
#
DISCID=5b105d07
DTITLE=Zdenek Kosler,Slovak Philharmonic Orchestra - Dvorak - The Mast
DTITLE=erworks [Disc16]
DYEAR=2004
DGENRE=Classical
TTITLE0=Piano Quartet in D major,Op.23 Allegro moderato
TTITLE1=Piano Quartet in D major,Op.23 Andantino
TTITLE2=Piano Quartet in D major,Op.23 Finale
TTITLE3=Piano Quartet in E Flat major,Op.87 Allegro con fuoco
TTITLE4=Piano Quartet in E Flat major,Op.87 Lento
TTITLE5=Piano Quartet in E Flat major,Op.87 Allegro moderato,grazioso
TTITLE6=Piano Quartet in E Flat major,Op.87 Finale
EXTD=YEAR: 1992
EXTT0=
EXTT1=
EXTT2=
EXTT3=
EXTT4=
EXTT5=
EXTT6=
PLAYORDER=
